<svg width="341" height="404" viewBox="0 0 341 404" fill="none" xmlns="http://www.w3.org/2000/svg">
<path d="M340.238 148.923C340.238 134.526 340.107 120.129 340.238 105.732C340.238 101.771 339.495 98.8174 335.563 97.4609C335.113 97.264 334.688 97.0143 334.296 96.7169L175.21 2.78565C174.166 2.27655 173.165 1.68386 172.217 1.01337C171.48 0.339396 170.512 -0.0233042 169.515 0.00116197C168.518 0.0256281 167.568 0.435361 166.865 1.14465C166.319 1.53849 165.73 1.82293 165.162 2.17301L104.742 38.4721C70.9723 58.7477 37.1949 79.016 3.41018 99.2769C2.30957 99.7834 1.39289 100.619 0.786497 101.67C0.180101 102.72 -0.0861318 103.933 0.0244596 105.141C0.242895 131.047 0.34483 156.96 0.330268 182.881C0.202055 184.101 0.449279 185.331 1.03881 186.407C1.62834 187.482 2.53199 188.351 3.62863 188.898C43.1509 212.237 82.644 235.575 122.108 258.914C123.092 259.481 124.21 259.776 125.345 259.768C126.481 259.759 127.594 259.449 128.57 258.867C129.546 258.286 130.35 257.455 130.9 256.46C131.449 255.465 131.725 254.341 131.697 253.204V211.872C131.712 210.718 131.424 209.58 130.86 208.574C130.296 207.568 129.477 206.728 128.486 206.139L54.2183 162.379C53.3664 161.876 52.5363 161.307 51.6407 160.891C50.9031 160.588 50.2877 160.046 49.892 159.353C49.4963 158.659 49.343 157.853 49.4564 157.062C49.97 149.88 49.97 142.671 49.4564 135.488C49.1506 132.469 49.4564 130.369 51.9684 128.924C55.2886 127.087 58.5215 125.008 61.7543 123.039C96.3545 102.253 130.955 81.4374 165.555 60.5929C166.827 59.825 168.285 59.4191 169.771 59.4191C171.256 59.4191 172.714 59.825 173.986 60.5929C227.532 92.3337 281.129 124.009 334.777 155.618C336.239 156.792 337.95 157.616 339.779 158.025C340.373 155.029 340.527 151.963 340.238 148.923Z" fill="url(#paint0_linear_1_3)" fill-opacity="0.08"/>
<path d="M196.66 97.702L196.835 134.22C196.835 135.178 196.688 136.13 196.398 137.042C195.855 138.85 194.751 140.437 193.247 141.574C191.743 142.711 189.916 143.339 188.032 143.366L152.645 143.541C150.726 143.528 148.863 142.895 147.332 141.736C145.801 140.577 144.684 138.954 144.148 137.108C143.894 136.248 143.761 135.357 143.755 134.461L143.602 97.9645C143.586 96.3655 143.985 94.7898 144.76 93.3916C145.505 92.0087 146.608 90.8524 147.953 90.0439C149.298 89.2354 150.836 88.8046 152.405 88.7968L187.77 88.6217C189.069 88.6179 190.354 88.9047 191.529 89.4611C192.704 90.0175 193.741 90.8296 194.563 91.8381C195.912 93.4941 196.653 95.5643 196.66 97.702Z" fill="#03162B" fill-opacity="0.06"/>
<path d="M340.587 221.281C340.711 219.893 340.41 218.5 339.723 217.288C339.036 216.076 337.996 215.103 336.743 214.498C296.711 190.941 256.664 167.325 216.603 143.651C214.419 142.338 214.834 142.841 212.584 141.463C212.056 141.16 211.458 141.003 210.85 141.008C210.242 141.013 209.646 141.18 209.124 141.492C208.602 141.804 208.171 142.249 207.877 142.782C207.583 143.315 207.436 143.917 207.451 144.526V192.662C207.449 193.278 207.608 193.885 207.91 194.422C208.213 194.958 208.649 195.408 209.176 195.725C216.559 200.101 221.234 202.574 228.617 206.928C232.44 209.116 236.24 211.545 239.976 213.886C245.131 217.08 250.461 219.99 255.659 223.075C266.479 229.508 277.335 235.868 288.228 242.155C289.438 242.785 290.378 243.835 290.871 245.109H291.352C291.352 245.109 291.548 271.037 291.352 271.802C291.112 272.476 290.741 273.095 290.261 273.624C289.781 274.154 289.202 274.583 288.556 274.887C282.308 278.607 276.105 282.392 269.879 286.134C245.123 300.969 220.426 315.811 195.786 330.66L195.48 330.835L184.318 337.771L175.472 343.131C175.013 343.394 174.554 343.657 174.117 343.854C173.737 344.049 173.342 344.217 172.938 344.357C172.589 344.479 172.231 344.575 171.868 344.641C171.533 344.674 171.197 344.674 170.863 344.641C170.522 344.684 170.177 344.684 169.836 344.641C168.663 344.385 167.573 343.835 166.669 343.044C166.543 342.932 166.404 342.836 166.254 342.76L146.595 331.185C99.8057 303.572 3.32274 246.115 1.33498 246.071C1.33498 246.618 1.33498 283.268 1.33498 300.947C1.25303 301.849 1.45279 302.755 1.90667 303.539C2.36054 304.322 3.04615 304.946 3.86884 305.323C4.89507 305.856 5.89384 306.44 6.86139 307.073L146.66 389.671L165.904 401.026C167.04 401.705 168.241 402.273 169.334 403.039C169.943 403.495 170.674 403.757 171.433 403.792C172.193 403.828 172.945 403.634 173.593 403.236C179.163 399.801 184.821 396.497 190.435 393.128L195.939 389.824L264.462 348.623C288.49 333.949 312.744 319.319 337.223 304.732C338.469 304.132 339.498 303.159 340.167 301.948C340.836 300.737 341.113 299.347 340.958 297.971C340.667 272.415 340.543 246.852 340.587 221.281Z" fill="url(#paint1_linear_1_3)" fill-opacity="0.08"/>
<path d="M150.221 315.409L169.727 326.918C170.055 327.115 170.426 327.334 170.841 327.618L191.483 315.146L195.393 312.783C195.393 282.37 195.393 188.657 195.393 159.251C195.402 158.736 195.309 158.225 195.121 157.747C194.932 157.268 194.651 156.832 194.294 156.462C193.937 156.092 193.511 155.796 193.04 155.592C192.569 155.387 192.062 155.277 191.549 155.268H150.046C149.53 155.274 149.021 155.382 148.548 155.585C148.074 155.789 147.645 156.084 147.286 156.454C146.927 156.824 146.644 157.262 146.454 157.742C146.264 158.222 146.171 158.734 146.18 159.251C146.18 188.767 146.18 282.064 146.18 312.958L150.221 315.409Z" fill="#03162B" fill-opacity="0.06"/>
<defs>
<linearGradient id="paint0_linear_1_3" x1="170.207" y1="0.510092" x2="170.207" y2="363.37" gradientUnits="userSpaceOnUse">
<stop stop-color="#66E5F8"/>
<stop offset="1" stop-color="#7547FF"/>
</linearGradient>
<linearGradient id="paint1_linear_1_3" x1="170.819" y1="0.510875" x2="170.819" y2="363.371" gradientUnits="userSpaceOnUse">
<stop stop-color="#66E5F8"/>
<stop offset="1" stop-color="#7547FF"/>
</linearGradient>
</defs>
</svg>
