<svg width="21" height="24" viewBox="0 0 21 24" fill="none" xmlns="http://www.w3.org/2000/svg">
<path d="M20.2224 8.85138C20.2224 7.99568 20.2146 7.13997 20.2224 6.28426C20.2224 6.04888 20.1782 5.87331 19.9445 5.79268C19.9178 5.78098 19.8925 5.76614 19.8692 5.74847L10.4138 0.165568C10.3517 0.135309 10.2923 0.100082 10.2359 0.0602307C10.1921 0.0201724 10.1346 -0.00138511 10.0753 6.90628e-05C10.016 0.00152323 9.95958 0.0258761 9.91781 0.0680332C9.88535 0.0914416 9.8503 0.108348 9.81654 0.129155L6.22547 2.28663C4.21831 3.49173 2.21071 4.69639 0.202688 5.90062C0.137271 5.93073 0.082788 5.98041 0.0467462 6.04284C0.0107045 6.10526 -0.00511933 6.17734 0.00145378 6.24915C0.0144367 7.7889 0.0204953 9.32909 0.0196298 10.8697C0.0120093 10.9422 0.0267033 11.0153 0.0617427 11.0793C0.096782 11.1432 0.150491 11.1949 0.215671 11.2273C2.56472 12.6145 4.91203 14.0017 7.25761 15.3888C7.31612 15.4225 7.38252 15.44 7.45002 15.4396C7.51751 15.4391 7.58365 15.4206 7.64167 15.386C7.69968 15.3515 7.74748 15.3021 7.78014 15.243C7.81281 15.1838 7.82918 15.117 7.82756 15.0494V12.5928C7.82846 12.5242 7.81129 12.4566 7.77778 12.3968C7.74428 12.337 7.69562 12.2871 7.63671 12.2521L3.22252 9.65117C3.17188 9.62126 3.12255 9.58745 3.06932 9.56274C3.02548 9.54469 2.9889 9.51251 2.96538 9.47128C2.94186 9.43006 2.93275 9.38215 2.93949 9.33516C2.97002 8.90828 2.97002 8.47977 2.93949 8.05289C2.92131 7.87343 2.93949 7.74859 3.08879 7.66276C3.28613 7.55352 3.47828 7.42997 3.67043 7.31293C5.72692 6.07749 7.78342 4.84031 9.83992 3.6014C9.91555 3.55576 10.0022 3.53164 10.0905 3.53164C10.1788 3.53164 10.2654 3.55576 10.3411 3.6014C13.5236 5.48794 16.7092 7.37059 19.8978 9.24933C19.9847 9.31912 20.0864 9.36805 20.1951 9.39238C20.2304 9.21433 20.2396 9.03208 20.2224 8.85138Z" fill="url(#paint0_linear_1_356)"/>
<path d="M11.6886 5.80701L11.699 7.97749C11.699 8.03442 11.6903 8.091 11.673 8.14525C11.6408 8.25269 11.5752 8.34704 11.4858 8.41462C11.3964 8.4822 11.2878 8.51949 11.1758 8.52109L9.07255 8.53149C8.9585 8.53072 8.84774 8.49309 8.75674 8.42421C8.66575 8.35532 8.59939 8.25885 8.56752 8.14915C8.5524 8.09806 8.54453 8.04509 8.54415 7.9918L8.53506 5.82262C8.53411 5.72758 8.55782 5.63392 8.60387 5.55082C8.64816 5.46863 8.71372 5.3999 8.79368 5.35185C8.87364 5.30379 8.96503 5.27819 9.05827 5.27772L11.1602 5.26732C11.2375 5.26709 11.3138 5.28414 11.3837 5.31721C11.4535 5.35028 11.5151 5.39855 11.564 5.45849C11.6442 5.55691 11.6882 5.67996 11.6886 5.80701Z" fill="#03162B"/>
<path d="M20.2431 13.152C20.2505 13.0695 20.2326 12.9867 20.1917 12.9147C20.1509 12.8426 20.0891 12.7848 20.0146 12.7489C17.6353 11.3487 15.2551 9.94507 12.874 8.53797C12.7442 8.45994 12.7688 8.48985 12.6351 8.40792C12.6037 8.38993 12.5682 8.3806 12.532 8.38091C12.4959 8.38122 12.4605 8.39115 12.4295 8.40967C12.3984 8.4282 12.3728 8.45466 12.3554 8.48635C12.3379 8.51803 12.3291 8.5538 12.33 8.58998V11.451C12.3299 11.4876 12.3393 11.5237 12.3573 11.5556C12.3753 11.5875 12.4012 11.6142 12.4326 11.6331C12.8714 11.8932 13.1492 12.0401 13.588 12.2989C13.8153 12.429 14.0412 12.5733 14.2632 12.7125C14.5696 12.9023 14.8863 13.0753 15.1953 13.2587C15.8384 13.641 16.4837 14.019 17.1311 14.3927C17.203 14.4301 17.2588 14.4925 17.2882 14.5682H17.3167C17.3167 14.5682 17.3284 16.1093 17.3167 16.1548C17.3025 16.1948 17.2804 16.2316 17.2519 16.2631C17.2234 16.2946 17.189 16.3201 17.1506 16.3382C16.7793 16.5592 16.4105 16.7842 16.0405 17.0066C14.5691 17.8883 13.1012 18.7705 11.6367 19.653L11.6185 19.6635L10.9551 20.0757L10.4293 20.3943C10.402 20.4099 10.3748 20.4255 10.3488 20.4372C10.3262 20.4488 10.3027 20.4588 10.2787 20.4671C10.258 20.4744 10.2367 20.4801 10.2151 20.484C10.1952 20.486 10.1752 20.486 10.1554 20.484C10.1351 20.4866 10.1146 20.4866 10.0943 20.484C10.0246 20.4688 9.95985 20.4362 9.90609 20.3891C9.89862 20.3825 9.89033 20.3768 9.88142 20.3722L8.71296 19.6843C5.93202 18.0431 0.197459 14.628 0.0793148 14.6254C0.0793148 14.658 0.0793148 16.8362 0.0793148 17.887C0.0744442 17.9407 0.0863171 17.9945 0.113294 18.0411C0.14027 18.0877 0.18102 18.1247 0.229917 18.1471C0.290912 18.1788 0.350275 18.2135 0.407783 18.2511L8.71686 23.1604L9.86065 23.8353C9.92816 23.8757 9.99957 23.9095 10.0645 23.955C10.1007 23.9821 10.1441 23.9977 10.1893 23.9998C10.2344 24.0018 10.2791 23.9903 10.3176 23.9667C10.6487 23.7625 10.985 23.5662 11.3186 23.3659L11.6458 23.1695L15.7185 20.7207C17.1467 19.8486 18.5882 18.979 20.0432 18.112C20.1172 18.0764 20.1784 18.0185 20.2181 17.9465C20.2579 17.8745 20.2743 17.7919 20.2652 17.7101C20.2479 16.1912 20.2405 14.6718 20.2431 13.152Z" fill="url(#paint1_linear_1_356)"/>
<path d="M8.92857 18.7466L10.0879 19.4307C10.1074 19.4424 10.1295 19.4554 10.1542 19.4723L11.381 18.731L11.6134 18.5906C11.6134 16.7829 11.6134 11.213 11.6134 9.46518C11.614 9.43461 11.6085 9.40424 11.5973 9.3758C11.586 9.34735 11.5694 9.3214 11.5481 9.29943C11.5269 9.27745 11.5016 9.25987 11.4736 9.2477C11.4456 9.23553 11.4155 9.229 11.3849 9.2285H8.91819C8.88756 9.22884 8.8573 9.23524 8.82914 9.24733C8.80099 9.25943 8.77551 9.27698 8.75415 9.29897C8.73279 9.32097 8.71599 9.34698 8.7047 9.3755C8.69342 9.40403 8.68787 9.4345 8.68839 9.46518C8.68839 11.2195 8.68839 16.7647 8.68839 18.601L8.92857 18.7466Z" fill="#03162B"/>
<defs>
<linearGradient id="paint0_linear_1_356" x1="10.1165" y1="0.0303178" x2="10.1165" y2="21.5973" gradientUnits="userSpaceOnUse">
<stop stop-color="#66E5F8"/>
<stop offset="1" stop-color="#7547FF"/>
</linearGradient>
<linearGradient id="paint1_linear_1_356" x1="10.1528" y1="0.0303155" x2="10.1528" y2="21.5972" gradientUnits="userSpaceOnUse">
<stop stop-color="#66E5F8"/>
<stop offset="1" stop-color="#7547FF"/>
</linearGradient>
</defs>
</svg>
