<svg width="220" height="55" viewBox="0 0 220 55" fill="none" xmlns="http://www.w3.org/2000/svg">
<g clip-path="url(#clip0_1_12)">
<path d="M68.6246 10.2676C68.0893 9.76455 67.4695 9.36103 66.7941 9.07577C66.153 8.82515 65.4706 8.69878 64.7828 8.70332C63.3196 8.70332 62.1525 9.1443 61.2817 10.0263C60.4109 10.9082 59.9754 12.0921 59.9754 13.5779C59.9754 15.0319 60.3793 16.186 61.1869 17.0402C61.9946 17.8943 63.0964 18.3204 64.4926 18.3184C66.019 18.3395 67.4941 17.7637 68.6068 16.7124L68.5861 19.7546C67.9722 20.1225 67.3102 20.4023 66.6193 20.5859C65.9124 20.771 65.1845 20.8631 64.4541 20.86C62.2641 20.86 60.4661 20.1747 59.0602 18.8041C57.7033 17.4117 56.9434 15.5396 56.9434 13.5898C56.9434 11.64 57.7033 9.76799 59.0602 8.37557C60.4681 7.00695 62.2839 6.32363 64.5074 6.32562C65.2336 6.32315 65.9579 6.4021 66.6667 6.56101C67.3771 6.72418 68.0668 6.96809 68.7224 7.28802L68.6246 10.2676Z" fill="#03162B"/>
<path d="M79.9694 20.4965H77.3776L77.419 19.1587C77.1038 19.6977 76.652 20.1429 76.1098 20.4488C75.5309 20.7382 74.8899 20.8794 74.2437 20.86C73.678 20.8791 73.1157 20.7652 72.6015 20.5272C72.0873 20.2893 71.6353 19.9339 71.2817 19.4894C70.5352 18.5776 70.161 17.3719 70.1591 15.8722C70.1591 14.3109 70.5273 13.0942 71.2639 12.2222C72.0005 11.3502 73.0224 10.9132 74.3296 10.9112C74.96 10.8976 75.5819 11.0584 76.1276 11.376C76.673 11.7142 77.1212 12.1897 77.4279 12.7556V11.2241H79.9634L79.9694 20.4965ZM77.5286 15.8484C77.5679 15.136 77.3455 14.434 76.9036 13.8759C76.6951 13.635 76.4353 13.4446 76.1435 13.3187C75.8517 13.1929 75.5354 13.1348 75.2182 13.1489C74.897 13.1326 74.5762 13.1889 74.2794 13.3137C73.9826 13.4384 73.7174 13.6285 73.5032 13.8699C73.0612 14.4303 72.8389 15.1342 72.8782 15.8484C72.8359 16.5551 73.0554 17.2525 73.4943 17.8059C73.9534 18.253 74.5674 18.503 75.2064 18.503C75.8454 18.503 76.4593 18.253 76.9184 17.8059C77.3542 17.2511 77.5714 16.5542 77.5286 15.8484Z" fill="#03162B"/>
<path d="M88.8911 20.2224C88.5347 20.4406 88.1485 20.6052 87.7447 20.711C87.3144 20.817 86.8726 20.869 86.4296 20.866C85.7737 20.8918 85.1195 20.7813 84.5079 20.5414C83.8963 20.3014 83.3405 19.9372 82.8751 19.4715C81.9609 18.5419 81.5037 17.3342 81.5037 15.8484C81.4817 15.1939 81.5933 14.5418 81.8317 13.9324C82.0702 13.3231 82.4303 12.7694 82.8899 12.3056C83.3629 11.8448 83.9238 11.4852 84.5388 11.2485C85.1538 11.0119 85.8101 10.9033 86.4681 10.9291C86.9106 10.9239 87.3521 10.9719 87.7832 11.0721C88.1716 11.1664 88.5446 11.3159 88.8911 11.5161L88.8733 14.2185C88.596 13.9308 88.2634 13.7027 87.8958 13.5481C87.5213 13.3876 87.118 13.3065 86.711 13.3098C86.379 13.2943 86.0474 13.348 85.737 13.4675C85.4266 13.587 85.1441 13.7696 84.9071 14.004C84.5341 14.3642 84.2792 14.8304 84.1764 15.3402C84.0737 15.85 84.128 16.3792 84.3321 16.8571C84.5362 17.335 84.8803 17.739 85.3186 18.015C85.7569 18.291 86.2685 18.426 86.785 18.4018C87.1817 18.4096 87.5751 18.3293 87.9373 18.1665C88.2946 17.9913 88.6099 17.7402 88.8614 17.4305L88.8911 20.2224Z" fill="#03162B"/>
<path d="M90.526 20.4965V5.85486H93.1444V11.0602C93.1444 11.3581 93.1444 11.6382 93.1178 11.9243C93.0911 12.2103 93.0704 12.4904 93.0319 12.7615C93.4911 12.1903 94.054 11.712 94.6906 11.3522C95.2645 11.058 95.9009 10.9087 96.5449 10.9172C97.1674 10.8989 97.7857 11.0253 98.3517 11.2866C98.8376 11.5269 99.2372 11.9132 99.4951 12.3921C99.6377 12.6661 99.7376 12.9605 99.7913 13.2651C99.8637 13.7702 99.8944 14.2804 99.8831 14.7906V20.4965H97.2173V15.9169C97.2173 14.7747 97.0859 14.0219 96.8233 13.6584C96.5607 13.2949 96.1095 13.1121 95.4697 13.1101C95.1166 13.1067 94.7677 13.1863 94.4507 13.3425C94.1727 13.482 93.9281 13.6805 93.7338 13.9244C93.5394 14.1682 93.4 14.4516 93.3251 14.7549C93.2397 15.1803 93.2029 15.6141 93.2155 16.048V20.4965H90.526Z" fill="#03162B"/>
<path d="M111.026 16.5307H104.104C104.164 17.0971 104.42 17.6244 104.827 18.0205C105.259 18.3705 105.804 18.5477 106.358 18.5181C106.798 18.5259 107.233 18.4235 107.623 18.2201C107.991 18.0199 108.298 17.7234 108.512 17.362L110.671 18.4495C110.231 19.2017 109.603 19.8251 108.849 20.2581C108.065 20.6707 107.19 20.8757 106.305 20.854C104.816 20.854 103.636 20.4071 102.765 19.5132C101.894 18.6194 101.459 17.4166 101.459 15.905C101.436 15.2447 101.545 14.5866 101.78 13.9697C102.015 13.3528 102.371 12.7899 102.827 12.3146C103.281 11.8483 103.827 11.4822 104.429 11.2396C105.031 10.9969 105.677 10.8831 106.326 10.9052C107.789 10.9052 108.947 11.3452 109.8 12.2252C110.653 13.1052 111.079 14.303 111.077 15.8186C111.077 15.902 111.077 15.9914 111.077 16.0867C111.056 16.197 111.044 16.34 111.026 16.5307ZM108.378 14.9038C108.34 14.3974 108.114 13.924 107.744 13.5779C107.34 13.2601 106.835 13.1003 106.323 13.128C105.804 13.1019 105.293 13.2613 104.88 13.5779C104.497 13.92 104.251 14.3918 104.19 14.9038H108.378Z" fill="#03162B"/>
<path d="M118.482 20.4965V6.66827H121.423V20.4965H118.482Z" fill="#03162B"/>
<path d="M123.941 20.4965V11.23H126.559V12.684C126.978 12.1338 127.508 11.679 128.114 11.3492C128.682 11.0761 129.3 10.9289 129.929 10.9176C130.558 10.9063 131.181 11.0311 131.758 11.2836C132.244 11.5267 132.645 11.9134 132.907 12.392C133.051 12.6655 133.151 12.9601 133.203 13.265C133.274 13.7703 133.304 14.2805 133.292 14.7906V20.4965H130.626V15.9169C130.626 14.7757 130.493 14.0219 130.232 13.6584C129.972 13.2948 129.518 13.1101 128.879 13.1101C128.526 13.1063 128.177 13.186 127.86 13.3425C127.552 13.4929 127.286 13.7182 127.087 13.998C126.921 14.2244 126.801 14.4817 126.734 14.7548C126.647 15.18 126.61 15.6141 126.625 16.048V20.4965H123.941Z" fill="#03162B"/>
<path d="M135.771 20.4965V13.3455H134.586V11.239H135.771V9.15328C135.771 7.90781 136.067 7.01394 136.627 6.47166C137.187 5.92937 138.135 5.66418 139.444 5.66418C139.613 5.66515 139.781 5.6791 139.948 5.7059C140.137 5.73272 140.386 5.78635 140.694 5.86084V8.00614C140.545 7.92343 140.387 7.85844 140.223 7.81247C140.071 7.77045 139.913 7.74939 139.755 7.74989C139.57 7.73157 139.384 7.75556 139.209 7.82006C139.035 7.88456 138.877 7.98789 138.748 8.12233C138.55 8.37262 138.452 8.80168 138.452 9.4125V11.236H140.161V13.3426H138.437V20.4935L135.771 20.4965Z" fill="#03162B"/>
<path d="M151.118 15.8961C151.136 16.5572 151.016 17.2147 150.766 17.8264C150.516 18.4381 150.141 18.9904 149.666 19.4477C148.653 20.3611 147.339 20.8662 145.979 20.8662C144.618 20.8662 143.305 20.3611 142.291 19.4477C141.355 18.5057 140.829 17.2281 140.829 15.8961C140.829 14.564 141.355 13.2865 142.291 12.3444C143.302 11.4288 144.613 10.9206 145.974 10.9173C147.334 10.914 148.648 11.4158 149.663 12.3265C150.14 12.7867 150.515 13.342 150.765 13.9567C151.016 14.5714 151.136 15.232 151.118 15.8961ZM148.396 15.8782C148.412 15.5478 148.362 15.2174 148.249 14.9068C148.136 14.5961 147.962 14.3114 147.738 14.0696C147.504 13.8396 147.226 13.6608 146.92 13.5444C146.614 13.428 146.287 13.3765 145.961 13.3932C145.638 13.3765 145.315 13.4274 145.012 13.5428C144.71 13.6582 144.435 13.8356 144.204 14.0636C143.785 14.5742 143.555 15.2158 143.555 15.8782C143.555 16.5405 143.785 17.1822 144.204 17.6927C144.434 17.9232 144.708 18.1027 145.011 18.2197C145.313 18.3367 145.637 18.3886 145.961 18.3721C146.285 18.387 146.608 18.3344 146.911 18.2174C147.214 18.1005 147.489 17.9219 147.72 17.6927C147.947 17.4515 148.124 17.1669 148.24 16.8558C148.356 16.5446 148.409 16.2132 148.396 15.8812V15.8782Z" fill="#03162B"/>
<path d="M155.336 13.6107C155.53 12.8403 155.935 12.1403 156.506 11.5905C157.023 11.1357 157.693 10.8951 158.381 10.9172C158.661 10.9296 158.94 10.9615 159.216 11.0125L159.385 11.0423L158.982 13.9325C158.786 13.8515 158.582 13.7897 158.375 13.7478C158.163 13.7053 157.948 13.6843 157.732 13.6852C156.917 13.6852 156.331 13.8967 155.975 14.3139C155.62 14.731 155.439 15.4342 155.439 16.4175V20.4965H152.773V11.23H155.413L155.336 13.6107Z" fill="#03162B"/>
<path d="M162.838 20.4965H160.173V11.23H162.838V12.684C163.205 12.1407 163.684 11.6834 164.242 11.3432C164.76 11.0546 165.345 10.9077 165.937 10.9172C166.591 10.8878 167.238 11.0525 167.8 11.3909C168.298 11.7295 168.659 12.2355 168.819 12.8181C169.19 12.2401 169.686 11.7542 170.27 11.3969C170.793 11.1026 171.378 10.9387 171.976 10.919C172.574 10.8993 173.169 11.0243 173.709 11.2837C174.165 11.5275 174.534 11.9088 174.764 12.3742C174.907 12.6552 175.007 12.9567 175.06 13.2681C175.127 13.7716 175.156 14.2796 175.146 14.7876V20.4935H172.48V15.9169C172.48 14.7876 172.367 14.0398 172.139 13.6673C172.007 13.4749 171.826 13.3216 171.615 13.2236C171.404 13.1256 171.171 13.0864 170.94 13.1101C170.646 13.0912 170.353 13.1534 170.092 13.29C169.831 13.4265 169.612 13.6322 169.459 13.8848C169.117 14.4013 168.946 15.2455 168.946 16.4175V20.4965H166.28V15.9169C166.28 14.8264 166.174 14.0894 165.96 13.706C165.852 13.5143 165.691 13.3579 165.497 13.2555C165.302 13.153 165.083 13.1088 164.864 13.128C164.561 13.1046 164.258 13.1649 163.986 13.3025C163.715 13.4401 163.486 13.6497 163.324 13.9087C163.004 14.4271 162.844 15.2634 162.844 16.4175L162.838 20.4965Z" fill="#03162B"/>
<path d="M186.532 20.4965H183.94L183.979 19.1647C183.663 19.7045 183.21 20.1499 182.666 20.4548C182.089 20.7445 181.449 20.8858 180.803 20.866C180.238 20.8854 179.675 20.7715 179.161 20.5336C178.647 20.2956 178.195 19.9401 177.841 19.4954C177.093 18.5836 176.719 17.3779 176.719 15.8782C176.719 14.3169 177.087 13.1002 177.823 12.2282C178.56 11.3562 179.582 10.9192 180.889 10.9172C181.519 10.904 182.141 11.0648 182.687 11.382C183.232 11.7211 183.68 12.1964 183.987 12.7616V11.2301H186.523L186.532 20.4965ZM184.091 15.8484C184.129 15.1362 183.907 14.4347 183.466 13.8759C183.258 13.6351 182.998 13.4447 182.706 13.3188C182.414 13.1929 182.098 13.1348 181.781 13.1489C181.459 13.1324 181.139 13.1886 180.842 13.3134C180.545 13.4382 180.28 13.6284 180.066 13.87C179.623 14.4296 179.4 15.134 179.441 15.8484C179.397 16.5553 179.617 17.2532 180.057 17.806C180.516 18.2531 181.13 18.503 181.769 18.503C182.408 18.503 183.022 18.2531 183.481 17.806C183.917 17.2511 184.134 16.5542 184.091 15.8484Z" fill="#03162B"/>
<path d="M188.993 20.4965V13.3455H187.705V11.2389H188.993V8.1521H191.659V11.23H192.948V13.3366H191.659V20.4875L188.993 20.4965Z" fill="#03162B"/>
<path d="M194.091 7.4221C194.095 7.00712 194.261 6.6103 194.553 6.31714C194.845 6.02398 195.239 5.85795 195.652 5.85484C195.858 5.85176 196.063 5.89084 196.254 5.96971C196.445 6.04858 196.618 6.16561 196.763 6.3137C196.91 6.45853 197.027 6.63143 197.106 6.82227C197.186 7.01311 197.227 7.21805 197.227 7.42508C197.227 7.6321 197.186 7.83704 197.106 8.02789C197.027 8.21873 196.91 8.39163 196.763 8.53646C196.619 8.68592 196.446 8.80423 196.255 8.88416C196.064 8.96409 195.859 9.00394 195.652 9.00128C195.446 9.00347 195.242 8.96247 195.053 8.8809C194.864 8.79933 194.693 8.67898 194.553 8.52752C194.406 8.38433 194.289 8.21252 194.209 8.0225C194.13 7.83249 194.09 7.62822 194.091 7.4221ZM194.328 20.4965V11.23H196.994V20.4965H194.328Z" fill="#03162B"/>
<path d="M209.014 15.8961C209.032 16.5572 208.912 17.2147 208.662 17.8264C208.412 18.4381 208.037 18.9904 207.562 19.4477C206.549 20.3611 205.236 20.8662 203.875 20.8662C202.514 20.8662 201.201 20.3611 200.187 19.4477C199.253 18.5045 198.728 17.2274 198.728 15.8961C198.728 14.5647 199.253 13.2876 200.187 12.3444C201.198 11.4288 202.509 10.9206 203.87 10.9173C205.23 10.914 206.544 11.4158 207.559 12.3265C208.036 12.7867 208.411 13.342 208.662 13.9567C208.912 14.5714 209.032 15.232 209.014 15.8961ZM206.292 15.8782C206.308 15.5478 206.258 15.2174 206.145 14.9068C206.032 14.5961 205.859 14.3114 205.634 14.0696C205.4 13.8396 205.122 13.6608 204.816 13.5444C204.51 13.428 204.183 13.3765 203.857 13.3932C203.537 13.3794 203.218 13.4317 202.92 13.5471C202.621 13.6624 202.349 13.8382 202.121 14.0636C201.702 14.5742 201.472 15.2158 201.472 15.8782C201.472 16.5405 201.702 17.1822 202.121 17.6927C202.35 17.9232 202.625 18.1027 202.928 18.2197C203.23 18.3367 203.554 18.3886 203.878 18.3721C204.202 18.387 204.525 18.3344 204.828 18.2174C205.131 18.1005 205.406 17.9219 205.637 17.6927C205.861 17.4499 206.034 17.1645 206.146 16.8534C206.259 16.5423 206.308 16.2118 206.292 15.8812V15.8782Z" fill="#03162B"/>
<path d="M210.649 20.4965V11.23H213.267V12.684C213.686 12.1338 214.216 11.679 214.822 11.3492C215.389 11.0761 216.008 10.9289 216.637 10.9176C217.266 10.9063 217.889 11.0311 218.466 11.2836C218.953 11.5262 219.355 11.913 219.618 12.392C219.759 12.6666 219.859 12.9608 219.914 13.265C219.985 13.7703 220.015 14.2805 220.003 14.7906V20.4965H217.337V15.9169C217.337 14.7747 217.206 14.0219 216.943 13.6584C216.681 13.2948 216.229 13.1121 215.589 13.1101C215.236 13.1067 214.888 13.1863 214.571 13.3425C214.293 13.482 214.048 13.6805 213.854 13.9244C213.659 14.1682 213.52 14.4515 213.445 14.7548C213.36 15.1803 213.323 15.6141 213.335 16.048V20.4965H210.649Z" fill="#03162B"/>
<path d="M56.6847 37.3609L58.3197 35.4987C58.5191 35.9911 58.8672 36.408 59.315 36.6905C59.7754 36.9834 60.3105 37.1356 60.8552 37.1285C61.4405 37.1603 62.0185 36.9865 62.4903 36.6369C62.6846 36.478 62.8394 36.2756 62.9422 36.046C63.0451 35.8163 63.0932 35.5656 63.0827 35.3139C63.0827 34.6624 62.4163 34.0109 61.0833 33.3593C60.6509 33.1508 60.3102 32.9809 60.0614 32.8498C58.8588 32.2221 58.0255 31.6064 57.5615 31.0025C57.0944 30.3864 56.85 29.6287 56.8683 28.8542C56.858 28.3124 56.9747 27.7757 57.2088 27.2875C57.4429 26.7994 57.788 26.3736 58.2161 26.0445C59.1146 25.3075 60.2806 24.9401 61.7142 24.942C62.456 24.9226 63.1925 25.0734 63.8677 25.383C64.5045 25.7035 65.0545 26.1749 65.4701 26.7566L63.7314 28.4281C63.5488 28.0572 63.264 27.7469 62.9109 27.5343C62.5325 27.3272 62.1064 27.2244 61.6757 27.2363C61.1693 27.212 60.6704 27.367 60.2658 27.6743C60.095 27.8092 59.9579 27.9823 59.8653 28.1799C59.7728 28.3775 59.7273 28.5941 59.7326 28.8125C59.7326 29.5435 60.4396 30.2109 61.8535 30.8148C62.1349 30.934 62.3511 31.0293 62.5022 31.1127C63.4858 31.5197 64.3686 32.1392 65.088 32.9273C65.6359 33.5675 65.9348 34.3857 65.9292 35.2305C65.9541 35.8142 65.8486 36.3961 65.6205 36.9334C65.3924 37.4707 65.0475 37.9497 64.6111 38.3352C63.7304 39.1059 62.5456 39.4913 61.0567 39.4913C60.1256 39.5172 59.2008 39.3297 58.3523 38.9431C57.6422 38.6092 57.0575 38.0545 56.6847 37.3609Z" fill="#03162B"/>
<path d="M69.9783 38.4008L66.2698 29.8524H69.3592L70.9557 34.0923C71.0692 34.3879 71.1565 34.693 71.2164 35.004C71.2924 35.3829 71.3459 35.7659 71.3763 36.1512C71.4386 35.8115 71.5185 35.4659 71.6104 35.1113C71.7022 34.7567 71.8207 34.3843 71.9599 33.988L73.358 29.8524H76.4207L70.935 43.332H67.973L69.9783 38.4008Z" fill="#03162B"/>
<path d="M76.3082 37.492L78.3639 36.4253C78.394 36.5973 78.4586 36.7613 78.5538 36.9073C78.6491 37.0533 78.7729 37.1783 78.9178 37.2745C79.2416 37.4666 79.6082 37.5738 79.9839 37.5863C80.3597 37.5987 80.7325 37.5161 81.0682 37.346C81.1846 37.2795 81.2809 37.1827 81.3471 37.0658C81.4133 36.9488 81.4469 36.8161 81.4444 36.6816C81.4444 36.2346 81.0001 35.8592 80.1115 35.5553C79.836 35.4629 79.6168 35.3825 79.4539 35.3199C78.3698 34.9117 77.6204 34.4975 77.2057 34.0834C77.002 33.8835 76.8414 33.6436 76.7339 33.3785C76.6264 33.1135 76.5743 32.8291 76.5807 32.5429C76.5712 32.1176 76.6624 31.6961 76.8468 31.3132C77.0311 30.9304 77.3034 30.5971 77.6411 30.341C78.3481 29.7809 79.2811 29.5008 80.4403 29.5008C81.1858 29.4816 81.9239 29.6538 82.5848 30.0014C83.1693 30.3138 83.634 30.8127 83.9059 31.4196L81.942 32.4029C81.8554 32.0824 81.6593 31.8028 81.3881 31.6133C81.0941 31.4248 80.7502 31.3303 80.4018 31.3422C80.0655 31.327 79.7324 31.4131 79.445 31.5895C79.3335 31.6546 79.2408 31.7481 79.1764 31.8605C79.1119 31.9729 79.0779 32.1003 79.0777 32.2301C79.0777 32.6919 79.6701 33.1239 80.8994 33.5172C81.0445 33.559 81.1541 33.5947 81.2282 33.6215C82.2353 33.9552 82.9521 34.3436 83.3786 34.7866C83.592 35.0122 83.7584 35.2783 83.8683 35.5694C83.9781 35.8605 84.0292 36.1707 84.0184 36.4819C84.0319 36.9069 83.9421 37.3288 83.7568 37.7109C83.5715 38.0931 83.2963 38.424 82.9551 38.6749C82.2501 39.2132 81.2953 39.4833 80.0908 39.4853C79.248 39.5107 78.4119 39.3275 77.656 38.952C77.037 38.6575 76.5544 38.1347 76.3082 37.492Z" fill="#03162B"/>
<path d="M85.923 39.1218V31.9708H84.6375V29.8643H85.923V26.7715H88.5888V29.8524H89.8743V31.9708H88.5888V39.1218H85.923Z" fill="#03162B"/>
<path d="M100.153 35.15H93.2304C93.2899 35.7166 93.5457 36.244 93.9531 36.6398C94.3853 36.9893 94.9308 37.1655 95.4845 37.1344C95.9231 37.1411 96.3565 37.0387 96.7463 36.8365C97.1145 36.6356 97.4216 36.338 97.6349 35.9754L99.7943 37.0629C99.3548 37.8157 98.7266 38.4393 97.9726 38.8715C97.1885 39.2841 96.3129 39.4891 95.4282 39.4674C93.9373 39.4674 92.7574 39.0205 91.8886 38.1266C91.0197 37.2328 90.5843 36.03 90.5823 34.5184C90.5595 33.8584 90.6686 33.2006 90.9032 32.5839C91.1377 31.9672 91.4929 31.4041 91.9478 30.928C92.4021 30.4624 92.9477 30.097 93.5499 29.8549C94.1521 29.6127 94.7978 29.4993 95.446 29.5216C96.9112 29.5216 98.0694 29.9606 98.9205 30.8386C99.7716 31.7166 100.198 32.9154 100.2 34.435C100.2 34.5154 100.2 34.6048 100.2 34.7031C100.2 34.8014 100.17 34.9504 100.153 35.15ZM97.5046 33.5262C97.4667 33.0189 97.2404 32.5445 96.8707 32.1973C96.465 31.8803 95.9589 31.7216 95.446 31.7504C94.9287 31.7233 94.4186 31.8817 94.0064 32.1973C93.6206 32.5389 93.3746 33.0125 93.3163 33.5262H97.5046Z" fill="#03162B"/>
<path d="M104.433 39.1219H101.767V29.8554H104.433V31.3094C104.799 30.7661 105.278 30.3087 105.837 29.9686C106.387 29.6823 107 29.5366 107.62 29.5444C108.239 29.5522 108.848 29.7132 109.391 30.0133C109.888 30.3534 110.248 30.8588 110.41 31.4405C110.783 30.8638 111.279 30.3782 111.862 30.0192C112.4 29.7019 113.015 29.5372 113.639 29.5425C114.212 29.5257 114.781 29.6505 115.295 29.906C115.751 30.1505 116.12 30.5316 116.352 30.9966C116.489 31.2792 116.583 31.5803 116.633 31.8904C116.701 32.395 116.73 32.904 116.719 33.413V39.1219H114.054V34.5363C114.054 33.41 113.938 32.6592 113.71 32.2897C113.58 32.0988 113.401 31.9463 113.193 31.8478C112.985 31.7494 112.754 31.7085 112.525 31.7295C112.229 31.708 111.932 31.7688 111.668 31.9055C111.403 32.0421 111.181 32.2492 111.026 32.5042C110.73 33.0227 110.561 33.8659 110.561 35.0368V39.1219H107.895V34.5363C107.895 33.4458 107.789 32.7088 107.576 32.3254C107.466 32.1343 107.304 31.9786 107.109 31.8767C106.915 31.7748 106.695 31.731 106.477 31.7504C106.174 31.7276 105.871 31.7879 105.6 31.9249C105.328 32.0619 105.099 32.2703 104.936 32.528C104.616 33.0495 104.457 33.8837 104.457 35.0368L104.433 39.1219Z" fill="#03162B"/>
<path d="M117.999 37.492L120.055 36.4253C120.085 36.5973 120.149 36.7613 120.245 36.9073C120.34 37.0533 120.464 37.1783 120.609 37.2745C120.932 37.4666 121.299 37.5738 121.675 37.5863C122.05 37.5987 122.423 37.5161 122.759 37.346C122.875 37.2795 122.972 37.1827 123.038 37.0658C123.104 36.9488 123.138 36.8161 123.135 36.6816C123.135 36.2346 122.691 35.8592 121.802 35.5553C121.527 35.4629 121.308 35.3825 121.145 35.3199C120.061 34.9117 119.311 34.4975 118.894 34.0834C118.69 33.8832 118.53 33.6432 118.423 33.3782C118.316 33.1132 118.265 32.8289 118.272 32.5429C118.262 32.1176 118.353 31.6961 118.538 31.3132C118.722 30.9304 118.994 30.5971 119.332 30.341C120.041 29.7809 120.974 29.5008 122.131 29.5008C122.877 29.4816 123.615 29.6538 124.276 30.0014C124.859 30.3139 125.323 30.8129 125.594 31.4196L123.633 32.4029C123.546 32.0824 123.35 31.8028 123.079 31.6133C122.785 31.4248 122.441 31.3303 122.093 31.3422C121.756 31.327 121.423 31.4131 121.136 31.5895C121.024 31.6546 120.932 31.7481 120.867 31.8605C120.803 31.9729 120.769 32.1003 120.769 32.2301C120.769 32.6919 121.361 33.1239 122.59 33.5172C122.735 33.559 122.845 33.5947 122.919 33.6215C123.926 33.9552 124.643 34.3436 125.069 34.7866C125.283 35.0122 125.449 35.2783 125.559 35.5694C125.669 35.8605 125.72 36.1707 125.709 36.4819C125.723 36.9069 125.633 37.3288 125.448 37.7109C125.262 38.0931 124.987 38.424 124.646 38.6749C123.939 39.2132 122.984 39.4833 121.782 39.4853C120.939 39.5107 120.103 39.3275 119.347 38.952C118.728 38.6575 118.245 38.1347 117.999 37.492Z" fill="#03162B"/>
<path d="M133.105 39.1218V25.2877H136.044V39.1218H133.105Z" fill="#03162B"/>
<path d="M138.553 39.1219V29.8554H141.174V31.3094C141.591 30.7579 142.12 30.3018 142.726 29.9716C143.298 29.6814 143.931 29.5343 144.571 29.5425C145.191 29.5229 145.806 29.6473 146.369 29.906C146.856 30.1494 147.258 30.536 147.522 31.0144C147.663 31.2901 147.763 31.5853 147.818 31.8904C147.889 32.3956 147.919 32.9059 147.907 33.416V39.1219H145.241V34.5363C145.241 33.3981 145.11 32.6453 144.847 32.2778C144.583 31.9143 144.133 31.7295 143.493 31.7295C143.14 31.7261 142.791 31.8057 142.474 31.9619C142.196 32.1014 141.952 32.3 141.757 32.5438C141.563 32.7876 141.424 33.071 141.349 33.3743C141.265 33.7999 141.229 34.2337 141.242 34.6674V39.1219H138.553Z" fill="#03162B"/>
<path d="M156.846 38.8447C156.489 39.0615 156.103 39.2251 155.7 39.3304C155.27 39.4378 154.828 39.4898 154.385 39.4853C153.729 39.511 153.075 39.4007 152.464 39.1613C151.852 38.922 151.296 38.5586 150.83 38.0939C149.914 37.1642 149.457 35.9565 149.459 34.4707C149.434 33.8142 149.544 33.1595 149.781 32.5475C150.019 31.9354 150.379 31.3791 150.839 30.9131C151.314 30.4513 151.878 30.0914 152.496 29.8553C153.113 29.6192 153.772 29.5118 154.432 29.5395C154.874 29.5349 155.316 29.5819 155.747 29.6795C156.135 29.7751 156.508 29.9245 156.855 30.1235L156.837 32.826C156.557 32.5396 156.222 32.3129 155.852 32.1594C155.483 32.0058 155.087 31.9285 154.687 31.9321C154.355 31.9167 154.023 31.9704 153.713 32.0898C153.403 32.2093 153.12 32.3919 152.883 32.6263C152.51 32.9866 152.255 33.4527 152.152 33.9625C152.05 34.4723 152.104 35.0015 152.308 35.4794C152.512 35.9574 152.856 36.3613 153.295 36.6373C153.733 36.9133 154.244 37.0483 154.761 37.0242C155.157 37.0316 155.549 36.9501 155.91 36.7858C156.269 36.6117 156.586 36.3605 156.837 36.0499L156.846 38.8447Z" fill="#03162B"/>
<path d="M46.1339 20.2879C46.1339 18.3273 46.1161 16.3667 46.1339 14.4062C46.1339 13.8669 46.0332 13.4646 45.5 13.2799C45.4389 13.2531 45.3813 13.2191 45.3282 13.1786L23.7556 0.387278C23.6141 0.317949 23.4784 0.237238 23.3498 0.145933C23.2499 0.0541527 23.1186 0.00476107 22.9834 0.0080928C22.8482 0.0114245 22.7194 0.067221 22.6241 0.163809C22.5501 0.217442 22.4701 0.256177 22.3931 0.30385L14.2001 5.24697C9.62074 8.00804 5.04043 10.7681 0.459134 13.5272C0.309888 13.5962 0.185584 13.71 0.103355 13.853C0.0211264 13.9961 -0.0149756 14.1612 2.08891e-05 14.3257C0.0296413 17.8536 0.043464 21.3824 0.0414893 24.9122C0.0241033 25.0783 0.0576276 25.2459 0.13757 25.3923C0.217512 25.5388 0.340049 25.6571 0.488757 25.7316C5.84808 28.9098 11.2035 32.088 16.5549 35.2662C16.6884 35.3434 16.8399 35.3835 16.9939 35.3824C17.1478 35.3813 17.2988 35.339 17.4311 35.2598C17.5635 35.1807 17.6725 35.0675 17.747 34.932C17.8216 34.7964 17.8589 34.6434 17.8552 34.4885V28.8601C17.8573 28.703 17.8181 28.5481 17.7417 28.411C17.6652 28.274 17.5542 28.1596 17.4198 28.0795L7.34886 22.1203C7.23334 22.0518 7.12078 21.9743 6.99933 21.9177C6.8993 21.8764 6.81585 21.8026 6.7622 21.7082C6.70855 21.6137 6.68776 21.504 6.70313 21.3963C6.77277 20.4182 6.77277 19.4364 6.70313 18.4584C6.66166 18.0472 6.70313 17.7612 7.04376 17.5645C7.494 17.3142 7.93238 17.0312 8.37076 16.763C13.0626 13.9324 17.7545 11.0979 22.4464 8.25932C22.619 8.15474 22.8166 8.09948 23.0181 8.09948C23.2195 8.09948 23.4172 8.15474 23.5898 8.25932C30.8507 12.5817 38.1186 16.8951 45.3934 21.1996C45.5916 21.3595 45.8237 21.4716 46.0717 21.5274C46.1522 21.1194 46.1732 20.7019 46.1339 20.2879Z" fill="url(#paint0_linear_1_12)"/>
<path d="M26.6644 13.3128L26.688 18.2857C26.6881 18.4161 26.6681 18.5457 26.6288 18.67C26.5552 18.9162 26.4055 19.1324 26.2016 19.2872C25.9976 19.442 25.7499 19.5275 25.4943 19.5311L20.6958 19.555C20.4356 19.5532 20.1829 19.467 19.9753 19.3092C19.7677 19.1513 19.6163 18.9303 19.5436 18.679C19.5091 18.5619 19.4912 18.4405 19.4903 18.3184L19.4695 13.3485C19.4674 13.1308 19.5215 12.9162 19.6265 12.7258C19.7276 12.5375 19.8772 12.38 20.0596 12.2699C20.242 12.1598 20.4505 12.1011 20.6632 12.1001L25.4588 12.0762C25.6351 12.0757 25.8092 12.1148 25.9686 12.1905C26.128 12.2663 26.2685 12.3769 26.38 12.5142C26.563 12.7397 26.6634 13.0217 26.6644 13.3128Z" fill="#03162B"/>
<path d="M46.1813 30.1414C46.1981 29.9524 46.1572 29.7627 46.0641 29.5976C45.9709 29.4326 45.8299 29.3001 45.6599 29.2177C40.2315 26.0097 34.8011 22.7938 29.3687 19.5699C29.0725 19.3911 29.1288 19.4596 28.8237 19.2719C28.7521 19.2307 28.671 19.2093 28.5885 19.21C28.5061 19.2107 28.4253 19.2335 28.3545 19.2759C28.2837 19.3184 28.2253 19.379 28.1854 19.4516C28.1456 19.5242 28.1256 19.6061 28.1276 19.6891V26.2441C28.1274 26.3281 28.1489 26.4106 28.1899 26.4837C28.2309 26.5568 28.2901 26.618 28.3616 26.6613C29.3628 27.2572 29.9966 27.5939 30.9978 28.1868C31.5162 28.4848 32.0316 28.8155 32.5381 29.1343C33.2371 29.5693 33.9599 29.9656 34.6648 30.3857C36.132 31.2617 37.6042 32.1278 39.0812 32.9839C39.2453 33.0698 39.3727 33.2127 39.4396 33.3862H39.5048C39.5048 33.3862 39.5315 36.917 39.5048 37.0213C39.4722 37.113 39.422 37.1973 39.3569 37.2694C39.2919 37.3415 39.2133 37.3999 39.1257 37.4414C38.2785 37.9479 37.4373 38.4634 36.5931 38.9729C33.2361 40.993 29.887 43.0142 26.5459 45.0363L26.5044 45.0601L24.9908 46.0047L23.7912 46.7347C23.729 46.7704 23.6668 46.8062 23.6075 46.833C23.5559 46.8596 23.5024 46.8825 23.4476 46.9015C23.4003 46.9182 23.3517 46.9312 23.3024 46.9403C23.2571 46.9447 23.2115 46.9447 23.1662 46.9403C23.1199 46.9461 23.0732 46.9461 23.0269 46.9403C22.8678 46.9053 22.7201 46.8305 22.5975 46.7228C22.5804 46.7075 22.5615 46.6945 22.5412 46.684L19.8753 45.1078C13.5306 41.3476 0.447275 33.5232 0.177729 33.5173C0.177729 33.5918 0.177729 38.5826 0.177729 40.9901C0.166617 41.1129 0.193705 41.2363 0.255251 41.343C0.316798 41.4497 0.409768 41.5346 0.521327 41.586C0.660486 41.6585 0.795923 41.7381 0.927126 41.8243L19.8842 53.0722L22.4938 54.6186C22.6478 54.711 22.8107 54.7885 22.9588 54.8927C23.0414 54.9548 23.1406 54.9905 23.2435 54.9953C23.3465 55.0001 23.4485 54.9737 23.5364 54.9196C24.2917 54.4518 25.0589 54.0019 25.8202 53.543L26.5666 53.0931L35.8585 47.4825C39.1168 45.4842 42.4056 43.4919 45.7251 41.5055C45.894 41.4239 46.0336 41.2914 46.1243 41.1264C46.2151 40.9614 46.2526 40.7722 46.2316 40.5848C46.1921 37.1047 46.1753 33.6235 46.1813 30.1414Z" fill="url(#paint1_linear_1_12)"/>
<path d="M20.367 42.9596L23.0121 44.5268C23.0566 44.5536 23.1069 44.5834 23.1632 44.6222L25.9623 42.9238L26.4925 42.602C26.4925 38.4604 26.4925 25.6989 26.4925 21.6943C26.4937 21.6243 26.4812 21.5547 26.4556 21.4895C26.43 21.4244 26.392 21.3649 26.3435 21.3145C26.2951 21.2642 26.2373 21.2239 26.1735 21.196C26.1096 21.1682 26.0408 21.1532 25.9712 21.152H20.3433C20.2734 21.1528 20.2044 21.1675 20.1402 21.1952C20.076 21.2229 20.0178 21.2631 19.9691 21.3135C19.9204 21.3639 19.882 21.4235 19.8563 21.4889C19.8305 21.5542 19.8179 21.624 19.819 21.6943C19.819 25.7138 19.819 38.4187 19.819 42.6258L20.367 42.9596Z" fill="#03162B"/>
<path d="M56.9098 47.6345H57.6562L58.5448 49.9913C58.6011 50.1463 58.6515 50.2893 58.69 50.3995C58.7285 50.5098 58.764 50.626 58.7936 50.7273C58.8687 50.483 58.9457 50.2416 59.0247 50.0033C59.0247 49.9735 59.0425 49.9556 59.0454 49.9437L59.9785 47.4498L60.9619 49.9913C61.0063 50.1135 61.0507 50.2386 61.0922 50.3608C61.1337 50.483 61.1722 50.6081 61.2077 50.7332C61.2284 50.6379 61.2581 50.5336 61.2936 50.4174C61.3292 50.3012 61.3766 50.1671 61.4328 50.0092L62.3066 47.6256H63.056L61.2581 52.4763L60.2006 49.8126C60.1532 49.6934 60.1118 49.5802 60.0733 49.4699C60.0347 49.3597 60.0022 49.2584 59.9725 49.172C59.937 49.2971 59.9015 49.4133 59.8629 49.5235C59.8244 49.6338 59.7919 49.7381 59.7533 49.8394L58.7137 52.4882L56.9098 47.6345Z" fill="black"/>
<path d="M65.3752 52.3035V47.6345H67.967V48.2781H66.1306V49.4491H67.967V50.1165H66.1306V51.6361H67.967V52.3154L65.3752 52.3035Z" fill="black"/>
<path d="M74.4274 52.3035V47.6345H75.4463C75.9136 47.6178 76.3814 47.6518 76.8414 47.7358C77.0987 47.7957 77.3401 47.9105 77.5494 48.0725C77.8188 48.2778 78.0293 48.5513 78.1595 48.8651C78.3036 49.2163 78.3742 49.5936 78.3669 49.9735C78.3745 50.3505 78.3039 50.7249 78.1595 51.0729C78.0286 51.3863 77.8182 51.6596 77.5494 51.8655C77.3453 52.025 77.1101 52.1397 76.8592 52.2022C76.4607 52.2832 76.0541 52.3172 75.6477 52.3035H74.4274ZM75.1827 51.6182H75.8166C76.0801 51.6268 76.3438 51.6028 76.6015 51.5467C76.7688 51.505 76.924 51.4243 77.0547 51.3113C77.2326 51.1607 77.3692 50.9669 77.4516 50.7482C77.6254 50.2414 77.6254 49.6907 77.4516 49.1839C77.3692 48.9652 77.2326 48.7713 77.0547 48.6207C76.9181 48.5063 76.7568 48.4257 76.5837 48.3854C76.3021 48.3283 76.0148 48.3043 75.7277 48.3138H75.1827V51.6182Z" fill="black"/>
<path d="M85.8105 49.9794C85.812 50.3018 85.7486 50.621 85.6239 50.918C85.5006 51.2168 85.3171 51.4867 85.0848 51.7106C84.851 51.9379 84.5767 52.1188 84.2762 52.2439C83.6663 52.4921 82.9844 52.4921 82.3745 52.2439C82.0751 52.1216 81.8023 51.9414 81.5718 51.7135C81.3412 51.4906 81.1578 51.223 81.0327 50.9269C80.7878 50.3214 80.7878 49.6435 81.0327 49.0379C81.1553 48.7383 81.3366 48.4667 81.5659 48.2393C81.7971 48.0116 82.0709 47.8323 82.3716 47.712C82.9836 47.4697 83.6641 47.4697 84.2762 47.712C84.5756 47.8331 84.8483 48.0123 85.0789 48.2393C85.3102 48.4675 85.4935 48.74 85.618 49.0408C85.7447 49.3374 85.8102 49.6567 85.8105 49.9794ZM85.0256 49.9794C85.026 49.516 84.8476 49.0706 84.5279 48.7369C84.3737 48.5775 84.1896 48.4503 83.9862 48.3629C83.7829 48.2754 83.5643 48.2294 83.3431 48.2274C83.1189 48.2267 82.8969 48.2714 82.6902 48.3589C82.4836 48.4465 82.2966 48.5751 82.1405 48.7369C81.9825 48.8997 81.8577 49.092 81.7733 49.3031C81.6887 49.5184 81.6455 49.7479 81.6459 49.9794C81.6457 50.209 81.689 50.4365 81.7733 50.6498C81.8591 50.8593 81.9837 51.0504 82.1405 51.213C82.2965 51.3757 82.4841 51.5044 82.6915 51.5914C82.8969 51.6779 83.1174 51.7225 83.3402 51.7225C83.5629 51.7225 83.7834 51.6779 83.9889 51.5914C84.1958 51.5036 84.3832 51.375 84.5398 51.213C84.6973 51.0498 84.822 50.8575 84.9071 50.6468C84.9894 50.4343 85.0297 50.2075 85.0256 49.9794Z" fill="black"/>
<path d="M96.0562 49.9973C96.0562 49.9615 96.0355 49.8632 96.0147 49.6993C95.994 49.5354 95.9851 49.449 95.9703 49.3596C95.952 49.4679 95.9253 49.5745 95.8903 49.6785C95.8528 49.789 95.8093 49.8974 95.76 50.0032L94.5455 52.4912L93.3311 49.9526C93.2808 49.8483 93.2363 49.747 93.1978 49.6546C93.1593 49.5622 93.1297 49.458 93.103 49.3567C93.103 49.455 93.103 49.5563 93.0793 49.6546C93.0556 49.7529 93.0438 49.8751 93.0171 49.9913L92.5254 52.3035H91.8293L92.9283 47.4378L94.3027 50.3846C94.3224 50.4303 94.355 50.5078 94.4004 50.617L94.5574 51.0193C94.6177 50.8449 94.6869 50.6739 94.7647 50.5068C94.7914 50.4532 94.8092 50.4114 94.821 50.3816L96.1599 47.4378L97.2647 52.3035H96.5657L96.0562 49.9973Z" fill="black"/>
<path d="M104.451 49.9794C104.453 50.3024 104.389 50.6224 104.264 50.92C104.14 51.2175 103.956 51.4865 103.725 51.7106C103.491 51.9379 103.217 52.1189 102.916 52.2439C102.306 52.4921 101.625 52.4921 101.015 52.2439C100.715 52.1216 100.442 51.9415 100.212 51.7136C99.8674 51.371 99.6321 50.933 99.536 50.4554C99.44 49.9778 99.4876 49.4822 99.6728 49.0319C99.8022 48.7327 99.9906 48.4631 100.227 48.2394C100.458 48.0116 100.732 47.8323 101.032 47.712C101.643 47.4696 102.323 47.4696 102.934 47.712C103.235 47.832 103.509 48.0114 103.74 48.2397C103.971 48.4679 104.154 48.7403 104.279 49.0409C104.398 49.3389 104.457 49.6581 104.451 49.9794ZM103.663 49.9794C103.664 49.7488 103.621 49.52 103.535 49.3061C103.45 49.0937 103.324 48.9004 103.165 48.737C103.012 48.5757 102.827 48.4479 102.623 48.3615C102.417 48.2724 102.195 48.2268 101.971 48.2274C101.747 48.2267 101.525 48.2714 101.318 48.359C101.112 48.4465 100.925 48.5751 100.769 48.737C100.611 48.8997 100.486 49.092 100.401 49.3031C100.316 49.5181 100.273 49.7478 100.274 49.9794C100.273 50.2091 100.316 50.4369 100.401 50.6498C100.487 50.8593 100.612 51.0504 100.769 51.213C100.924 51.3754 101.111 51.5043 101.318 51.5919C101.525 51.6795 101.747 51.7239 101.971 51.7225C102.193 51.7242 102.413 51.6796 102.617 51.5914C102.823 51.5029 103.009 51.3743 103.165 51.213C103.324 51.0507 103.45 50.8583 103.535 50.6469C103.621 50.4349 103.664 50.2081 103.663 49.9794Z" fill="black"/>
<path d="M107.839 50.2148V52.3005H107.134V47.6345H108.186C108.427 47.629 108.668 47.649 108.906 47.6941C109.063 47.7296 109.212 47.7987 109.341 47.8967C109.485 48.0121 109.599 48.1615 109.673 48.3317C109.755 48.5194 109.795 48.7227 109.791 48.9276C109.813 49.2487 109.717 49.5666 109.522 49.8215C109.315 50.0471 109.029 50.1837 108.725 50.2029L110.324 52.3273H109.471L107.925 50.2416L107.839 50.2148ZM107.89 49.6189H108.023C108.296 49.6446 108.571 49.5962 108.82 49.4789C108.89 49.4184 108.946 49.3415 108.98 49.2548C109.015 49.1681 109.028 49.0742 109.018 48.9813C109.029 48.8799 109.015 48.7774 108.977 48.6825C108.94 48.5877 108.881 48.5031 108.805 48.436C108.565 48.3076 108.293 48.2527 108.023 48.2781H107.89V49.6189Z" fill="black"/>
<path d="M112.587 52.3035V47.6345H115.179V48.2781H113.343V49.4491H115.179V50.1165H113.343V51.6361H115.179V52.3154L112.587 52.3035Z" fill="black"/>
<path d="M123.138 48.2781V52.3035H122.383V48.2781H121.151V47.6345H124.364V48.2781H123.138Z" fill="black"/>
<path d="M126.761 52.3035V47.6345H127.516V49.3567H129.797V47.6345H130.552V52.3035H129.797V50.0361H127.516V52.3035H126.761Z" fill="black"/>
<path d="M136.5 52.3035L135.976 51.1117H134.136L133.597 52.3035H132.809L135.051 47.4647L137.297 52.3184L136.5 52.3035ZM134.426 50.4711H135.721L135.244 49.4044C135.217 49.3358 135.188 49.2584 135.158 49.169C135.128 49.0796 135.099 48.9842 135.069 48.871C135.048 48.9717 135.021 49.0712 134.989 49.169C134.96 49.2584 134.933 49.3388 134.903 49.4133L134.426 50.4711Z" fill="black"/>
<path d="M139.551 52.3035V47.4647L142.513 50.3191C142.593 50.3995 142.673 50.486 142.756 50.5783C142.839 50.6707 142.925 50.772 143.016 50.8763V47.6345H143.712V52.4852L140.706 49.5802C140.623 49.5011 140.545 49.4175 140.472 49.3299C140.396 49.2423 140.325 49.1508 140.259 49.0558V52.3035H139.551Z" fill="black"/>
<path d="M150.374 52.3035V47.6345H151.129V52.3035H150.374Z" fill="black"/>
<path d="M155.531 48.2781V52.3035H154.779V48.2781H153.544V47.6345H156.76V48.2781H155.531Z" fill="black"/>
</g>
<defs>
<linearGradient id="paint0_linear_1_12" x1="23.0773" y1="0.0773976" x2="23.0773" y2="49.4907" gradientUnits="userSpaceOnUse">
<stop stop-color="#66E5F8"/>
<stop offset="1" stop-color="#7547FF"/>
</linearGradient>
<linearGradient id="paint1_linear_1_12" x1="23.1602" y1="0.0774819" x2="23.1602" y2="49.4908" gradientUnits="userSpaceOnUse">
<stop stop-color="#66E5F8"/>
<stop offset="1" stop-color="#7547FF"/>
</linearGradient>
<clipPath id="clip0_1_12">
<rect width="220" height="55" fill="white"/>
</clipPath>
</defs>
</svg>
